<?xml version="1.0" encoding="UTF-8" standalone="no"?>
<!-- Generator: Adobe Illustrator 18.1.1, SVG Export Plug-In . SVG Version: 6.00 Build 0)  -->

<svg
   xmlns:dc="http://purl.org/dc/elements/1.1/"
   xmlns:cc="http://creativecommons.org/ns#"
   xmlns:rdf="http://www.w3.org/1999/02/22-rdf-syntax-ns#"
   xmlns:svg="http://www.w3.org/2000/svg"
   xmlns="http://www.w3.org/2000/svg"
   xmlns:sodipodi="http://sodipodi.sourceforge.net/DTD/sodipodi-0.dtd"
   xmlns:inkscape="http://www.inkscape.org/namespaces/inkscape"
   version="1.1"
   id="Layer_1"
   x="0px"
   y="0px"
   viewBox="0 0 50 50"
   enable-background="new 0 0 1080 1080"
   xml:space="preserve"
   inkscape:version="0.48.4 r9939"
   width="100%"
   height="100%"
   sodipodi:docname="dinex-icon-color-alpha-shadow.svg"><metadata
     id="metadata25"><rdf:RDF><cc:Work
         rdf:about=""><dc:format>image/svg+xml</dc:format><dc:type
           rdf:resource="http://purl.org/dc/dcmitype/StillImage" /><dc:title></dc:title></cc:Work></rdf:RDF></metadata><defs
     id="defs23" /><sodipodi:namedview
     pagecolor="#ffffff"
     bordercolor="#666666"
     borderopacity="1"
     objecttolerance="10"
     gridtolerance="10"
     guidetolerance="10"
     inkscape:pageopacity="0"
     inkscape:pageshadow="2"
     inkscape:window-width="1855"
     inkscape:window-height="1056"
     id="namedview21"
     showgrid="false"
     fit-margin-right="-0.1"
     fit-margin-bottom="-0.3"
     inkscape:zoom="18.18"
     inkscape:cx="25"
     inkscape:cy="25"
     inkscape:window-x="1505"
     inkscape:window-y="24"
     inkscape:window-maximized="1"
     inkscape:current-layer="Layer_1" /><g
     id="g2990"
     transform="matrix(0.11098266,0,0,0.11098266,-2.934081,-3.7610956)"><path
       style="opacity:0.15;fill:#535f68"
       inkscape:connector-curvature="0"
       id="path3"
       d="m 108.5661,130.71525 c 0,0 166.4,-99.499996 294.5,53.3 8.6,3.9 17.6,4 17.6,4 0,0 -7,-50.4 -28.8,-66.5 -21.8,-16.1 -115.8,-79.599996 -168.9,-64.399996 -53.1,15.2 -99.6,33.2 -108.1,45.499996 -8.5,12.3 -6.3,28.1 -6.3,28.1 z"
       enable-background="new    " /><circle
       transform="translate(-302.0339,-255.08475)"
       style="fill:#535f68"
       sodipodi:ry="24"
       sodipodi:rx="24"
       sodipodi:cy="514.90002"
       sodipodi:cx="746.70001"
       id="circle5"
       r="24"
       cy="514.90002"
       cx="746.70001"
       d="m 770.70001,514.90002 c 0,13.25484 -10.74516,24 -24,24 -13.25483,0 -24,-10.74516 -24,-24 0,-13.25483 10.74517,-24 24,-24 13.25484,0 24,10.74517 24,24 z" /><circle
       transform="translate(-302.0339,-255.08475)"
       style="fill:#00abec"
       sodipodi:ry="24"
       sodipodi:rx="24"
       sodipodi:cy="439"
       sodipodi:cx="363.60001"
       id="circle7"
       r="24"
       cy="439"
       cx="363.60001"
       d="m 387.60001,439 c 0,13.25483 -10.74517,24 -24,24 -13.25484,0 -24,-10.74517 -24,-24 0,-13.25483 10.74516,-24 24,-24 13.25483,0 24,10.74517 24,24 z" /><g
       transform="translate(-302.0339,-255.08475)"
       id="g9"><path
         style="fill:#00abec"
         inkscape:connector-curvature="0"
         id="path11"
         d="m 709.1,437.5 21.2,8.8 c 1.5,0.6 3.2,0 3.9,-1.5 l 9.6,-19.6 c 0.7,-1.5 2.6,-2.1 4.1,-1.4 l 10.6,5.2 c 1.5,0.7 2.1,2.6 1.4,4.1 L 743,467.9 c -0.7,1.4 -2.4,2.1 -3.9,1.5 L 702.2,454 c -1.6,-0.6 -2.3,-2.4 -1.6,-4 l 4.5,-10.9 c 0.7,-1.5 2.4,-2.3 4,-1.6 z" /></g><path
       style="fill:#00abec"
       inkscape:connector-curvature="0"
       id="path13"
       d="m 97.566102,137.71525 c 1.8,1.2 4.299998,0.8 5.699998,-0.9 33.6,-40.999996 84.6,-67.199996 141.7,-67.199996 81.1,0 150.1,52.999996 174.1,126.199996 0.7,2.3 3.3,3.5 5.5,2.6 l 15.9,-5.9 c 2.2,-0.8 3.3,-3.1 2.6,-5.3 -27.5,-82.9 -105.9,-142.999996 -198.1,-142.999996 -65.6,0 -124.2,30.4 -162.499998,77.899996 -1.6,1.9 -1.1,4.8 1,6.2 l 14.1,9.4 z" /><path
       style="fill:#535f68"
       inkscape:connector-curvature="0"
       id="path15"
       d="m 423.7661,316.11525 c -2.1,-2.6 -6.2,-2 -7.4,1.2 -26.1,69.4 -93.1,118.8 -171.5,118.8 -101,0 -183.199998,-82.2 -183.199998,-183.2 0,-2.7 0.1,-5.5 0.2,-8.2 0.1,-2.4 -1.8,-4.4 -4.3,-4.4 h -16.9 c -2.3,0 -4.2,1.8 -4.3,4.1 -0.1,2.8 -0.2,5.7 -0.2,8.6 0,115 93.599998,208.6 208.599998,208.6 85.6,0 159.3,-51.8 191.5,-125.8 0.6,-1.4 0.4,-3.1 -0.6,-4.4 l -11.9,-15.3 z" /><path
       style="opacity:0.15;fill:#535f68"
       inkscape:connector-curvature="0"
       id="path17"
       d="m 222.7661,186.71525 c 0,0 -6.7,9.2 2,9.2 19.1,0 63.2,1.3 63.2,63.9 0,56.9 16.8,-59.8 8,-65.4 -8.9,-5.7 -29.7,-17 -47.4,-15.4 -17.8,1.5 -25.8,7.7 -25.8,7.7 z"
       enable-background="new    " /><path
       style="fill:#535f68"
       inkscape:connector-curvature="0"
       id="path19"
       d="m 245.1661,342.01525 c -17.2,0 -40.6,-1.7 -47.9,-2.9 -4.1,-0.7 -6.3,-2.7 -6.3,-7.5 v -163.6 c 0,-4.9 2.2,-6.8 6.3,-7.5 7.3,-1.2 30.6,-2.9 47.9,-2.9 48.6,0 76.3,26.2 76.3,74.3 v 35.7 c 0,48.1 -27.7,74.4 -76.3,74.4 z m 42.8,-110.1 c 0,-36.4 -18.5,-45.9 -42.8,-45.9 -9,0 -15.3,0.5 -20.4,0.7 v 126.1 c 5.1,0.2 11.4,0.7 20.4,0.7 24.3,0 42.8,-9.5 42.8,-45.9 v -35.7 z" /></g></svg>
